<svg width="737" height="799" viewBox="0 0 737 799" fill="none" xmlns="http://www.w3.org/2000/svg">
<circle cx="338" cy="307" r="307" fill="#F5CB5C"/>
<rect x="291" y="614" width="47" height="91" fill="#1ACD7B"/>
<path d="M275.916 278.257C289.998 255.577 323.002 255.577 337.084 278.257L537.793 601.51C552.683 625.492 535.437 656.5 507.209 656.5H105.791C77.5627 656.5 60.3165 625.492 75.2066 601.51L275.916 278.257Z" fill="#1ACD7B"/>
<rect x="452" y="614" width="47" height="91" fill="#028090"/>
<path d="M438.861 162.591C450.49 136.51 487.51 136.51 499.139 162.591L680.387 569.061C690.12 590.887 674.146 615.5 650.248 615.5H287.752C263.854 615.5 247.88 590.887 257.613 569.061L438.861 162.591Z" fill="#028090"/>
</svg>
